<svg version="1.1" id="Layer_1" xmlns="http://www.w3.org/2000/svg" xmlns:xlink="http://www.w3.org/1999/xlink" x="0px" y="0px"
	 width="100%" viewBox="0 0 51 70" enable-background="new 0 0 51 70" xml:space="preserve">
<path fill="#070704" opacity="1.000000" stroke="none" 
	d="
M1.000000,20.000000 
	C1.000000,13.683608 1.000000,7.367216 1.000000,1.025412 
	C17.937555,1.025412 34.875156,1.025412 51.906380,1.025412 
	C51.906380,24.333183 51.906380,47.666534 51.906380,71.000000 
	C44.229679,71.000000 36.583534,71.000000 28.508209,70.652321 
	C29.797968,67.231590 31.516903,64.158546 33.496483,60.881386 
	C36.803719,55.450428 39.850307,50.223583 43.154068,44.766823 
	C44.588909,42.023598 45.766575,39.510284 47.193756,36.705284 
	C48.023846,33.278370 48.604416,30.143145 49.301140,26.624855 
	C49.119278,24.447031 48.821259,22.652267 48.540489,20.513847 
	C47.747181,18.984497 46.936626,17.798805 46.184753,16.217716 
	C43.861652,13.151594 41.479874,10.480870 39.034058,7.457448 
	C36.313190,5.792796 33.656357,4.480843 30.556866,3.019436 
	C16.883713,1.604292 7.427921,6.577092 2.650906,19.397243 
	C2.518077,19.753719 1.568648,19.805916 1.000000,20.000000 
z"/>
<path fill="#060503" opacity="1.000000" stroke="none" 
	d="
M23.000000,71.000000 
	C15.720566,71.000000 8.441132,71.000000 1.000000,71.000000 
	C1.000000,58.646160 1.000000,46.291740 1.268310,33.130848 
	C2.888268,35.199310 4.239915,38.074245 5.669061,41.133919 
	C6.011057,41.603416 6.275555,41.888172 6.634366,42.491608 
	C7.625865,44.269096 8.523052,45.727913 9.496571,47.535248 
	C10.980411,49.949062 12.387917,52.014355 13.838093,54.414284 
	C14.770589,56.238514 15.660416,57.728111 16.655653,59.554813 
	C18.546129,62.590141 20.331192,65.288361 22.178879,68.301704 
	C22.494335,69.411217 22.747168,70.205612 23.000000,71.000000 
z"/>
<path fill="#D5BB73" opacity="1.000000" stroke="none" 
	d="
M1.000000,20.454109 
	C1.568648,19.805916 2.518077,19.753719 2.650906,19.397243 
	C7.427921,6.577092 16.883713,1.604292 30.515598,3.360455 
	C29.276745,6.173742 27.636499,8.496559 25.620333,10.926367 
	C17.115110,11.790453 12.660460,16.907574 9.475526,24.005112 
	C5.279422,24.178617 2.431941,25.324709 2.654294,29.963165 
	C1.882235,29.977276 1.441118,29.988638 1.000000,30.000000 
	C1.000000,26.969406 1.000000,23.938814 1.000000,20.454109 
z"/>
<path fill="#C9AE65" opacity="1.000000" stroke="none" 
	d="
M1.000000,30.375000 
	C1.441118,29.988638 1.882235,29.977276 3.046357,29.968201 
	C5.805672,29.644094 7.841983,29.317703 10.079130,29.312378 
	C10.976198,31.711981 11.672429,33.790520 12.007710,36.020222 
	C9.628361,37.763985 7.609961,39.356579 5.591562,40.949177 
	C4.239915,38.074245 2.888268,35.199310 1.268310,32.662189 
	C1.000000,32.250000 1.000000,31.500000 1.000000,30.375000 
z"/>
<path fill="#A68747" opacity="1.000000" stroke="none" 
	d="
M23.416666,71.000000 
	C22.747168,70.205612 22.494335,69.411217 22.505924,68.216896 
	C26.258846,65.573143 29.747343,63.329323 33.235840,61.085499 
	C31.516903,64.158546 29.797968,67.231590 28.039516,70.652321 
	C26.611111,71.000000 25.222221,71.000000 23.416666,71.000000 
z"/>
<path fill="#B0904C" opacity="1.000000" stroke="none" 
	d="
M33.496483,60.881386 
	C29.747343,63.329323 26.258846,65.573143 22.443302,67.901772 
	C20.331192,65.288361 18.546129,62.590141 17.008436,59.385216 
	C24.133593,54.849319 30.983128,50.770466 37.911263,46.829792 
	C39.429501,45.966228 41.227654,45.594803 42.896900,44.996738 
	C39.850307,50.223583 36.803719,55.450428 33.496483,60.881386 
z"/>
<path fill="#B29450" opacity="1.000000" stroke="none" 
	d="
M43.154068,44.766823 
	C41.227654,45.594803 39.429501,45.966228 37.911263,46.829792 
	C30.983128,50.770466 24.133593,54.849319 16.903025,59.048107 
	C15.660416,57.728111 14.770589,56.238514 14.218616,54.329155 
	C16.912981,53.212337 19.303429,52.612053 21.619541,51.799805 
	C28.155062,49.507835 33.837082,46.210934 36.364647,38.965042 
	C40.160503,38.308357 43.552376,37.652664 46.944244,36.996971 
	C45.766575,39.510284 44.588909,42.023598 43.154068,44.766823 
z"/>
<path fill="#B99B54" opacity="1.000000" stroke="none" 
	d="
M47.193756,36.705284 
	C43.552376,37.652664 40.160503,38.308357 36.236649,38.843990 
	C35.704662,38.723927 35.448158,38.482361 35.632370,38.217857 
	C36.806343,36.335625 37.796104,34.717899 39.005646,32.861317 
	C39.465816,32.027485 39.706200,31.432514 39.950813,30.557953 
	C40.198689,29.818466 40.442337,29.358566 41.086208,28.895563 
	C44.052616,28.264278 46.618805,27.636097 49.184990,27.007915 
	C48.604416,30.143145 48.023846,33.278370 47.193756,36.705284 
z"/>
<path fill="#C3A964" opacity="1.000000" stroke="none" 
	d="
M39.098095,7.810146 
	C41.479874,10.480870 43.861652,13.151594 45.660088,16.287468 
	C42.654572,16.858210 40.232403,16.963800 37.548042,16.921717 
	C36.043007,15.543753 34.800167,14.313463 33.739296,12.721573 
	C35.646873,10.843363 37.372482,9.326755 39.098095,7.810146 
z"/>
<path fill="#D2B66D" opacity="1.000000" stroke="none" 
	d="
M39.034058,7.457448 
	C37.372482,9.326755 35.646873,10.843363 33.356728,12.629393 
	C30.526882,12.205667 28.261568,11.512522 25.996256,10.819376 
	C27.636499,8.496559 29.276745,6.173742 30.958256,3.509907 
	C33.656357,4.480843 36.313190,5.792796 39.034058,7.457448 
z"/>
<path fill="#BD9F58" opacity="1.000000" stroke="none" 
	d="
M49.301140,26.624855 
	C46.618805,27.636097 44.052616,28.264278 41.136566,28.512705 
	C40.767548,26.601643 40.748394,25.070337 40.997707,23.222790 
	C43.685200,22.223536 46.104218,21.540520 48.523239,20.857506 
	C48.821259,22.652267 49.119278,24.447031 49.301140,26.624855 
z"/>
<path fill="#BDA25E" opacity="1.000000" stroke="none" 
	d="
M48.540489,20.513847 
	C46.104218,21.540520 43.685200,22.223536 40.793961,22.924583 
	C39.484573,20.984871 38.647408,19.027130 37.810238,17.069389 
	C40.232403,16.963800 42.654572,16.858210 45.601402,16.682865 
	C46.936626,17.798805 47.747181,18.984497 48.540489,20.513847 
z"/>
<path fill="#B99B54" opacity="1.000000" stroke="none" 
	d="
M35.832664,38.844978 
	C33.837082,46.210934 28.155062,49.507835 21.619541,51.799805 
	C19.303429,52.612053 16.912981,53.212337 14.175946,53.994514 
	C12.387917,52.014355 10.980411,49.949062 9.931570,47.477425 
	C12.198755,46.637119 14.186958,46.411793 15.997162,45.720417 
	C18.729881,44.676697 21.338404,43.307793 24.403328,42.016052 
	C27.775574,41.270981 30.744200,40.586945 33.958107,39.788818 
	C34.472679,39.436916 34.741962,39.199100 35.077068,38.801956 
	C35.142887,38.642624 35.448158,38.482361 35.448158,38.482361 
	C35.448158,38.482361 35.704662,38.723927 35.832664,38.844978 
z"/>
<path fill="#BCA05A" opacity="1.000000" stroke="none" 
	d="
M23.999708,42.077091 
	C21.338404,43.307793 18.729881,44.676697 15.997162,45.720417 
	C14.186958,46.411793 12.198755,46.637119 9.855238,47.128906 
	C8.523052,45.727913 7.625865,44.269096 7.048047,42.452988 
	C9.909582,40.769436 12.451749,39.443176 15.342171,38.162895 
	C18.460186,39.498280 21.229946,40.787685 23.999708,42.077091 
z"/>
<path fill="#C4A960" opacity="1.000000" stroke="none" 
	d="
M14.993916,38.116913 
	C12.451749,39.443176 9.909582,40.769436 6.953734,42.134315 
	C6.275555,41.888172 6.011057,41.603416 5.669061,41.133919 
	C7.609961,39.356579 9.628361,37.763985 12.250530,36.046982 
	C13.265417,36.135437 13.676533,36.348293 14.131344,36.874214 
	C14.447999,37.497154 14.720958,37.807034 14.993916,38.116913 
z"/>
<path fill="#0F0E08" opacity="1.000000" stroke="none" 
	d="
M14.087646,36.561150 
	C13.676533,36.348293 13.265417,36.135437 12.611481,35.895817 
	C11.672429,33.790520 10.976198,31.711981 10.134491,28.898220 
	C9.947979,26.773472 9.906944,25.383949 9.865909,23.994427 
	C12.660460,16.907574 17.115110,11.790453 25.620333,10.926367 
	C28.261568,11.512522 30.526882,12.205667 33.174763,12.990993 
	C34.800167,14.313463 36.043007,15.543753 37.548042,16.921715 
	C38.647408,19.027130 39.484573,20.984871 40.525490,23.240822 
	C40.748394,25.070337 40.767548,26.601643 40.736343,28.515808 
	C40.442337,29.358566 40.198689,29.818466 39.631672,30.478218 
	C38.518688,30.433289 37.729076,30.188505 36.971985,29.969273 
	C37.004513,29.994822 37.042980,30.068056 37.125454,29.677099 
	C35.919830,27.560230 34.825985,25.625519 33.274780,24.182421 
	C32.254761,23.233486 30.349213,23.268768 29.248880,22.365490 
	C27.920929,21.275352 27.025360,19.658508 25.843597,18.142597 
	C24.975863,18.948227 24.522560,19.417915 24.020031,19.827154 
	C21.900198,21.553461 21.760639,26.499460 16.943674,24.136719 
	C16.629957,23.982838 15.027956,26.455402 14.025216,27.706242 
	C14.691993,28.174488 15.358770,28.642736 15.947321,29.421535 
	C15.275277,32.008446 14.681461,34.284798 14.087646,36.561150 
z"/>
<path fill="#D3B76C" opacity="1.000000" stroke="none" 
	d="
M9.475526,24.005112 
	C9.906944,25.383949 9.947979,26.773472 9.933655,28.577152 
	C7.841983,29.317703 5.805672,29.644094 3.377299,29.965450 
	C2.431941,25.324709 5.279422,24.178617 9.475526,24.005112 
z"/>
<path fill="#0D0C06" opacity="1.000000" stroke="none" 
	d="
M14.131344,36.874214 
	C14.681461,34.284798 15.275277,32.008446 16.103416,29.075943 
	C21.754429,30.550301 22.486418,24.418854 25.503756,22.873589 
	C27.748066,25.024948 29.539768,27.201126 31.777420,28.720556 
	C33.187462,29.678015 35.264915,29.652580 37.042980,30.068056 
	C37.042980,30.068056 37.004513,29.994822 36.925144,30.295246 
	C37.492470,31.430504 38.139168,32.265339 38.785866,33.100174 
	C37.796104,34.717899 36.806343,36.335625 35.632370,38.217857 
	C35.448158,38.482361 35.142887,38.642624 34.803673,38.869804 
	C34.213917,39.365623 33.963371,39.634266 33.712826,39.902908 
	C30.744200,40.586945 27.775574,41.270981 24.403328,42.016052 
	C21.229946,40.787685 18.460186,39.498280 15.342171,38.162895 
	C14.720958,37.807034 14.447999,37.497154 14.131344,36.874214 
z"/>
<path fill="#BD9F58" opacity="1.000000" stroke="none" 
	d="
M39.005646,32.861317 
	C38.139168,32.265339 37.492470,31.430504 36.892616,30.269695 
	C37.729076,30.188505 38.518688,30.433289 39.627445,30.757807 
	C39.706200,31.432514 39.465816,32.027485 39.005646,32.861317 
z"/>
<path fill="#B29450" opacity="1.000000" stroke="none" 
	d="
M33.958107,39.788818 
	C33.963371,39.634266 34.213917,39.365623 34.737854,39.029137 
	C34.741962,39.199100 34.472679,39.436916 33.958107,39.788818 
z"/>
<path fill="#AC985D" opacity="1.000000" stroke="none" 
	d="
M37.125454,29.677099 
	C35.264915,29.652580 33.187462,29.678015 31.777420,28.720556 
	C29.539768,27.201126 27.748066,25.024948 25.503756,22.873589 
	C22.486418,24.418854 21.754429,30.550301 16.181644,28.765390 
	C15.358770,28.642736 14.691993,28.174488 14.025216,27.706242 
	C15.027956,26.455402 16.629957,23.982838 16.943674,24.136719 
	C21.760639,26.499460 21.900198,21.553461 24.020031,19.827154 
	C24.522560,19.417915 24.975863,18.948227 25.843597,18.142597 
	C27.025360,19.658508 27.920929,21.275352 29.248880,22.365490 
	C30.349213,23.268768 32.254761,23.233486 33.274780,24.182421 
	C34.825985,25.625519 35.919830,27.560230 37.125454,29.677099 
z"/>
</svg>