<?xml version="1.0" encoding="UTF-8"?>
<svg version="1.1" xmlns="http://www.w3.org/2000/svg" width="51" height="70">
<path d="M0 0 C16.83 0 33.66 0 51 0 C51 23.1 51 46.2 51 70 C34.17 70 17.34 70 0 70 C0 46.9 0 23.8 0 0 Z " fill="#BB9E5A" transform="translate(0,0)"/>
<path d="M0 0 C16.83 0 33.66 0 51 0 C51 23.1 51 46.2 51 70 C43.08 70 35.16 70 27 70 C31.49903649 59.8771679 31.49903649 59.8771679 33.91015625 56.140625 C34.42513672 55.33496094 34.94011719 54.52929688 35.47070312 53.69921875 C36.25864258 52.48685547 36.25864258 52.48685547 37.0625 51.25 C38.11628788 49.60963348 39.16968516 47.96901595 40.22265625 46.328125 C40.70903564 45.57257324 41.19541504 44.81702148 41.6965332 44.03857422 C46.79669625 36.06210645 49.06308397 29.56775576 48 20 C46.16085876 13.31856284 41.59216568 8.85736976 36 5 C31.01776795 2.27715225 25.66231535 0.91506731 20 2 C11.96080772 4.80872401 6.43794885 9.12410229 2.625 16.75 C-0.81177011 34.62120457 9.9976317 49.68363765 19.5625 63.9375 C20.22378906 64.89527344 20.88507812 65.85304688 21.56640625 66.83984375 C23 69 23 69 23 70 C15.41 70 7.82 70 0 70 C0 46.9 0 23.8 0 0 Z " fill="#070603" transform="translate(0,0)"/>
<path d="M0 0 C0.66 0 1.32 0 2 0 C5 4.38461538 5 4.38461538 5 7 C6.65 6.67 8.3 6.34 10 6 C11.32 7.65 12.64 9.3 14 11 C12.09277976 14.52835744 10.59025164 17.11039388 7 19 C0.90222872 20.53924324 -3.42245844 20.17154324 -9 17 C-11.4375 14.8125 -11.4375 14.8125 -13 13 C-11.74155722 9.11980141 -10.57583797 7.0588158 -7 5 C-6.01 5 -5.02 5 -4 5 C-2.64172029 3.35360035 -1.30745749 1.68704193 0 0 Z " fill="#0B0A05" transform="translate(24,21)"/>
<path d="M0 0 C5.28880121 2.76761641 9.11379158 6.22348672 11 12 C11.1875 15.875 11.1875 15.875 11 19 C7.83884224 17.63016497 7.0072908 17.0109362 5 14 C4.195625 13.855625 3.39125 13.71125 2.5625 13.5625 C0 13 0 13 -1.8125 11.0625 C-3 9 -3 9 -3 7 C-3.763125 7.763125 -4.52625 8.52625 -5.3125 9.3125 C-6.199375 10.199375 -7.08625 11.08625 -8 12 C-8.515625 12.598125 -9.03125 13.19625 -9.5625 13.8125 C-11 15 -11 15 -15 15 C-17.25065102 16.91666921 -17.25065102 16.91666921 -19 19 C-19.36974956 14.37813049 -19.44556027 10.94458777 -17.4375 6.6875 C-12.7508985 1.52022142 -7.23094832 -1.8146106 0 0 Z " fill="#0E0D07" transform="translate(29,10)"/>
<path d="M0 0 C0.66 0 1.32 0 2 0 C2.8971875 1.4540625 2.8971875 1.4540625 3.8125 2.9375 C6.38028473 6.53239862 6.91156474 6.30197447 11 7 C13.8125 9.5625 13.8125 9.5625 16 12 C15.67 12.99 15.34 13.98 15 15 C14.34 15 13.68 15 13 15 C12.566875 14.34 12.13375 13.68 11.6875 13 C11.130625 12.34 10.57375 11.68 10 11 C9.175 11.020625 8.35 11.04125 7.5 11.0625 C6.675 11.041875 5.85 11.02125 5 11 C3.18116991 8.6167054 2 7.04181663 2 4 C0.8553125 5.175625 0.8553125 5.175625 -0.3125 6.375 C-5.04761905 11 -5.04761905 11 -9 11 C-10.68798827 12.43750191 -10.68798827 12.43750191 -12 14 C-12.66 13.34 -13.32 12.68 -14 12 C-12.35 10.02 -10.7 8.04 -9 6 C-7.68 6.33 -6.36 6.66 -5 7 C-4.66226562 6.4946875 -4.32453125 5.989375 -3.9765625 5.46875 C-3.53054687 4.8190625 -3.08453125 4.169375 -2.625 3.5 C-2.18414062 2.8503125 -1.74328125 2.200625 -1.2890625 1.53125 C-0.86367188 1.0259375 -0.43828125 0.520625 0 0 Z " fill="#A69259" transform="translate(24,17)"/>
</svg>
